<svg alt="Magnify" class="search-icon" viewBox="0 0 100 100" height="20px" width="20px" xmlns="http://www.w3.org/2000/svg">
    <path d="M56.629,62.511c-5.955,4.69 -13.468,7.489 -21.629,7.489c-19.317,0 -35,-15.683 -35,-35c0,-19.317 15.683,-35 35,-35c19.317,0 35,15.683 35,35c0,8.073 -2.739,15.511 -7.337,21.435c0.64,-0.001 1.28,0.243 1.768,0.731l33.891,33.891c0.976,0.976 0.976,2.56 0,3.536l-3.535,3.535c-0.976,0.976 -2.56,0.976 -3.536,0l-33.891,-33.891c-0.477,-0.477 -0.721,-1.1 -0.731,-1.726Zm-21.629,-52.511c-13.798,0 -25,11.202 -25,25c0,13.798 11.202,25 25,25c13.798,0 25,-11.202 25,-25c0,-13.798 -11.202,-25 -25,-25Z" fill="#fff"/>
</svg>
